<svg height="512pt" viewBox="0 -9 512 511" width="512pt" xmlns="http://www.w3.org/2000/svg"><path d="m306.121094 304.503906h-100.238282c-8.753906 0-15.871093 7.117188-15.871093 15.871094v49.125c0 8.75 7.117187 15.867188 15.871093 15.867188h100.238282c8.75 0 15.871094-7.117188 15.871094-15.867188v-49.125c0-8.753906-7.121094-15.871094-15.871094-15.871094zm0 0" fill="#005f7e"/><path d="m306.121094 132.65625h-100.238282c-8.753906 0-15.871093 7.121094-15.871093 15.871094v49.125c0 8.75 7.117187 15.871094 15.871093 15.871094h100.238282c8.75 0 15.871094-7.121094 15.871094-15.871094v-49.125c0-8.75-7.121094-15.871094-15.871094-15.871094zm0 0" fill="#005f7e"/><path d="m306.121094 385.367188c8.75 0 15.871094-7.117188 15.871094-15.867188v-49.125c0-8.753906-7.121094-15.871094-15.871094-15.871094h-50.121094v80.863282zm0 0" fill="#00455f"/><path d="m321.992188 197.652344v-49.125c0-8.75-7.121094-15.871094-15.871094-15.871094h-50.121094v80.867188h50.121094c8.75 0 15.871094-7.121094 15.871094-15.871094zm0 0" fill="#00455f"/><path d="m403.988281.5h-53.203125c-11.480468 0-20.816406 9.339844-20.816406 20.816406v41.28125c0 4.382813 3.550781 7.933594 7.933594 7.933594h78.96875c4.382812 0 7.9375-3.550781 7.9375-7.933594v-41.28125c0-11.476562-9.339844-20.816406-20.820313-20.816406zm0 0" fill="#005f7e"/><path d="m161.214844.5h-53.203125c-11.480469 0-20.816407 9.339844-20.816407 20.816406v41.28125c0 4.382813 3.550782 7.933594 7.933594 7.933594h78.96875c4.382813 0 7.9375-3.550781 7.9375-7.933594v-41.28125c-.003906-11.476562-9.339844-20.816406-20.820312-20.816406zm0 0" fill="#007aa0"/><path d="m423.613281 54.660156h-92.453125c-8.75 0-15.871094 7.121094-15.871094 15.871094v62.125c0 8.75 7.121094 15.871094 15.871094 15.871094h92.453125c8.75 0 15.871094-7.121094 15.871094-15.871094v-62.125c0-8.75-7.121094-15.871094-15.871094-15.871094zm0 0" fill="#ffa100"/><path d="m180.839844 54.660156h-92.453125c-8.75 0-15.871094 7.121094-15.871094 15.871094v62.125c0 8.75 7.121094 15.871094 15.871094 15.871094h92.453125c8.75 0 15.871094-7.121094 15.871094-15.871094v-62.125c0-8.75-7.121094-15.871094-15.871094-15.871094zm0 0" fill="#ffdf45"/><path d="m492.105469 419.960938-30.71875-272.375c-.945313-8.371094-8.285157-14.929688-16.710938-14.929688h-133.621093c-8.75 0-15.867188 7.121094-15.867188 15.871094v272.273437c0 8.75 7.117188 15.871094 15.867188 15.871094h166.117187c4.335937 0 8.441406-1.808594 11.261719-4.964844 2.816406-3.15625 4.15625-7.4375 3.671875-11.746093zm0 0" fill="#005f7e"/><path d="m200.945312 132.65625h-133.621093c-8.425781 0-15.765625 6.558594-16.707031 14.929688l-30.71875 272.375c-.488282 4.308593.851562 8.589843 3.667968 11.746093 2.820313 3.15625 6.925782 4.964844 11.261719 4.964844h166.117187c8.75 0 15.871094-7.121094 15.871094-15.871094v-272.273437c-.003906-8.75-7.121094-15.871094-15.871094-15.871094zm0 0" fill="#007aa0"/><path d="m493.121094 420.800781h-198.011719c-10.410156 0-18.878906 8.46875-18.878906 18.878907v35.527343c0 10.410157 8.46875 18.878907 18.878906 18.878907h198.011719c10.410156 0 18.878906-8.46875 18.878906-18.878907v-35.527343c0-10.410157-8.46875-18.878907-18.878906-18.878907zm0 0" fill="#ffa100"/><path d="m216.890625 420.800781h-198.011719c-10.410156 0-18.878906 8.46875-18.878906 18.878907v35.527343c0 10.410157 8.46875 18.878907 18.878906 18.878907h198.011719c10.410156 0 18.878906-8.46875 18.878906-18.878907v-35.527343c0-10.410157-8.464843-18.878907-18.878906-18.878907zm0 0" fill="#ffdf45"/></svg>